<svg width="125" height="125" viewBox="0 0 125 125" fill="none" xmlns="http://www.w3.org/2000/svg">
<rect width="125" height="125" rx="62.5" fill="#72B572"/>
<path d="M28.2881 97.81C27.1415 97.1793 26.3675 96.434 25.9661 95.574C25.5648 94.714 25.3928 93.768 25.4501 92.736C25.5648 91.704 25.7655 90.6433 26.0521 89.554C26.5108 87.7193 26.9981 86.2 27.5141 84.996C28.0875 83.7347 28.6321 82.4447 29.1481 81.126C29.7215 79.75 30.2088 78.0013 30.6101 75.88C31.5275 73.7587 32.3301 71.752 33.0181 69.86C33.7635 67.968 34.3368 66.42 34.7381 65.216C35.1395 64.012 35.3401 63.41 35.3401 63.41C35.3975 63.1807 35.6268 62.5787 36.0281 61.604C36.4868 60.6293 37.0315 59.454 37.6621 58.078C38.3501 56.6447 39.0095 55.2113 39.6401 53.778C40.6148 51.026 41.5321 48.704 42.3921 46.812C43.2521 44.8627 44.1121 43.114 44.9721 41.566C45.8895 40.018 46.8641 38.47 47.8961 36.922C48.5841 35.718 49.5588 35.0013 50.8201 34.772C52.0815 34.5427 53.2855 34.686 54.4321 35.202C55.5788 35.6607 56.3241 36.4633 56.6681 37.61C56.9548 38.1833 57.1841 38.8427 57.3561 39.588C57.5855 40.3333 57.7861 41.4513 57.9581 42.942C58.1875 44.3753 58.3308 46.468 58.3881 49.22C58.5028 52.488 58.5601 55.498 58.5601 58.25C58.6175 60.9447 58.7321 63.4387 58.9041 65.732C59.1335 68.0253 59.5061 70.118 60.0221 72.01C60.1941 73.042 60.3661 74.3033 60.5381 75.794C60.7101 77.2273 60.8821 78.6607 61.0541 80.094C61.2835 81.5273 61.5128 82.7313 61.7421 83.706C61.9715 84.6233 62.2008 85.082 62.4301 85.082C62.7168 85.082 63.0321 84.8527 63.3761 84.394C63.7775 83.878 64.2935 82.8173 64.9241 81.212C65.5548 79.6067 66.3575 77.1413 67.3321 73.816C68.3068 70.4907 69.4821 66.0187 70.8581 60.4C71.1448 59.4253 71.5175 57.8487 71.9761 55.67C72.4921 53.4913 72.8648 51.284 73.0941 49.048C73.4955 47.6147 73.8968 46.038 74.2981 44.318C74.6995 42.598 75.0435 41.0787 75.3301 39.76C75.6741 38.4413 75.8461 37.696 75.8461 37.524C75.8461 37.1227 75.8461 36.7787 75.8461 36.492C75.9035 36.2053 75.9035 35.9187 75.8461 35.632C76.1328 35.632 76.3908 35.2593 76.6201 34.514C76.8495 33.7113 76.9641 33.0233 76.9641 32.45C76.9641 31.4753 77.0788 30.7013 77.3081 30.128C77.5948 29.4973 77.8815 29.0387 78.1681 28.752C78.7988 27.6053 79.6015 27.032 80.5761 27.032C81.6081 26.9747 82.5541 27.2613 83.4141 27.892C84.2741 28.4653 84.7901 29.182 84.9621 30.042C85.0768 30.6727 84.9048 32.106 84.4461 34.342C84.0448 36.5207 83.4141 39.4733 82.5541 43.2C82.5541 43.8307 82.3821 44.8627 82.0381 46.296C81.6941 47.7293 81.3215 49.2487 80.9201 50.854C80.5761 52.4593 80.3181 53.8353 80.1461 54.982C79.9168 56.4727 79.6588 57.8773 79.3721 59.196C79.0855 60.4573 78.7988 61.0593 78.5121 61.002C77.0215 67.4807 75.4448 73.0133 73.7821 77.6C72.1768 82.1293 70.7435 85.8273 69.4821 88.694C68.1061 91.8473 66.3288 93.854 64.1501 94.714C62.0288 95.6313 60.0508 94.9147 58.2161 92.564C57.1268 91.0733 56.2095 89.6113 55.4641 88.178C54.7188 86.7447 54.1168 85.0533 53.6581 83.104C53.1995 81.1547 52.7981 78.6893 52.4541 75.708C52.1101 73.3 51.7948 70.9493 51.5081 68.656C51.2788 66.3053 51.1068 63.926 50.9921 61.518C50.8775 59.0527 50.8488 56.444 50.9061 53.692C50.9635 50.424 50.8201 48.5033 50.4761 47.93C50.1895 47.3567 49.7595 47.672 49.1861 48.876C48.6128 50.08 47.9535 51.714 47.2081 53.778C46.8068 54.9247 46.3195 56.2433 45.7461 57.734C45.2301 59.1673 44.6855 60.6007 44.1121 62.034C43.5388 63.4673 43.0515 64.7 42.6501 65.732C42.2488 66.764 41.9908 67.4233 41.8761 67.71C41.5321 68.398 41.1308 69.3153 40.6721 70.462C40.2135 71.5513 39.8408 72.7267 39.5541 73.988C37.4901 79.3773 35.9421 84.0213 34.9101 87.92C33.9355 91.7613 33.2188 94.3127 32.7601 95.574C32.1868 97.1793 31.6421 98.154 31.1261 98.498C30.6675 98.842 29.7215 98.6127 28.2881 97.81ZM86.0062 86.028C84.8022 86.4293 83.7989 86.63 82.9962 86.63C82.1936 86.5727 81.3049 86.2 80.3302 85.512C79.1836 84.3653 78.7822 83.2187 79.1262 82.072C79.5276 80.868 80.5596 79.6927 82.2222 78.546C83.3689 77.858 84.2002 77.514 84.7162 77.514C85.2896 77.4567 86.1209 77.6573 87.2102 78.116C89.1596 79.32 90.0196 80.6673 89.7902 82.158C89.5609 83.5913 88.2996 84.8813 86.0062 86.028ZM103.055 86.028C101.851 86.4293 100.848 86.63 100.045 86.63C99.2424 86.5727 98.3537 86.2 97.379 85.512C96.2324 84.3653 95.831 83.2187 96.175 82.072C96.5764 80.868 97.6084 79.6927 99.271 78.546C100.418 77.858 101.249 77.514 101.765 77.514C102.338 77.4567 103.17 77.6573 104.259 78.116C106.208 79.32 107.068 80.6673 106.839 82.158C106.61 83.5913 105.348 84.8813 103.055 86.028Z" fill="#282626"/>
</svg>
